<svg xmlns="http://www.w3.org/2000/svg" width="1200" height="630" viewBox="0 0 1200 630">
  <rect width="1200" height="630" fill="#1E293B"/>
  <circle cx="1050" cy="120" r="220" fill="#F97316" opacity="0.18"/>
  <circle cx="120" cy="560" r="200" fill="#F97316" opacity="0.12"/>
  <g transform="translate(96,150)">
    <rect width="72" height="72" rx="18" fill="#F97316"/>
    <path d="M52 20a8 8 0 0 1-10 10l-11 11a3.6 3.6 0 1 1-5.2-5.2l11-11a8 8 0 0 1 10-10l-4.6 4.6 2.7 2.7L52 20Z" fill="#fff" transform="translate(6,6)"/>
    <text x="92" y="34" font-family="Georgia, serif" font-size="34" font-weight="bold" fill="#ffffff">Mesterul</text>
    <text x="92" y="34" font-family="Georgia, serif" font-size="34" font-weight="bold" fill="#F97316" dx="190">Dorel</text>
  </g>
  <text x="96" y="340" font-family="Georgia, serif" font-size="68" font-weight="bold" fill="#ffffff">Meseriași verificați</text>
  <text x="96" y="420" font-family="Georgia, serif" font-size="68" font-weight="bold" fill="#F97316">pentru orice lucrare</text>
  <text x="96" y="500" font-family="Arial, sans-serif" font-size="30" fill="#CBD5E1">Găsești rapid meseriașul potrivit · mesteruldorel.ro</text>
</svg>
